HIERARCHY
ROOT Hips
{
  OFFSET -35.4901 99.2528 17.4586
  CHANNELS 6 Xposition Yposition Zposition Zrotation Xrotation Yrotation
  JOINT LeftUpLeg
  {
    OFFSET 8.64259 1.95398 -2.38835
    CHANNELS 3 Zrotation Xrotation Yrotation
    JOINT LeftLeg
    {
      OFFSET 43.7702 0 0
      CHANNELS 3 Zrotation Xrotation Yrotation
      JOINT LeftFoot
      {
        OFFSET 40.6238 0 0
        CHANNELS 3 Zrotation Xrotation Yrotation
        JOINT LeftToeBase
        {
          OFFSET 12.7242 0 0
          CHANNELS 3 Zrotation Xrotation Yrotation
          End Site
          {
            OFFSET 0 0 0
          }
        }
      }
    }
  }
  JOINT RightUpLeg
  {
    OFFSET -8.2249 1.95398 -2.59336
    CHANNELS 3 Zrotation Xrotation Yrotation
    JOINT RightLeg
    {
      OFFSET 43.5653 0 0
      CHANNELS 3 Zrotation Xrotation Yrotation
      JOINT RightFoot
      {
        OFFSET 40.6238 0 0
        CHANNELS 3 Zrotation Xrotation Yrotation
        JOINT RightToeBase
        {
          OFFSET 12.7242 0 0
          CHANNELS 3 Zrotation Xrotation Yrotation
          End Site
          {
            OFFSET 0 0 0
          }
        }
      }
    }
  }
  JOINT Spine
  {
    OFFSET 0.165834 0.87714 6.61349
    CHANNELS 3 Zrotation Xrotation Yrotation
    JOINT Spine1
    {
      OFFSET 7.38963 1.71661e-005 0
      CHANNELS 3 Zrotation Xrotation Yrotation
      JOINT Spine2
      {
        OFFSET 11.9445 1.14441e-005 0
        CHANNELS 3 Zrotation Xrotation Yrotation
        JOINT Spine3
        {
          OFFSET 14.7254 4.19617e-005 0
          CHANNELS 3 Zrotation Xrotation Yrotation
          JOINT Spine4
          {
            OFFSET 10.9679 0 0
            CHANNELS 3 Zrotation Xrotation Yrotation
            JOINT RightShoulder
            {
              OFFSET 2.46616 -1.6653 3.69651
              CHANNELS 3 Zrotation Xrotation Yrotation
              JOINT RightArm
              {
                OFFSET 13.0012 0 0
                CHANNELS 3 Zrotation Xrotation Yrotation
                JOINT RightForeArm
                {
                  OFFSET 28.7848 1.52588e-005 0
                  CHANNELS 3 Zrotation Xrotation Yrotation
                  JOINT RightHand
                  {
                    OFFSET 26.5688 1.52588e-005 0
                    CHANNELS 3 Zrotation Xrotation Yrotation
                    End Site
                    {
                      OFFSET 0 0 0
                    }
                  }
                }
              }
            }
            JOINT LeftShoulder
            {
              OFFSET 2.38034 -1.29275 -3.7523
              CHANNELS 3 Zrotation Xrotation Yrotation
              JOINT LeftArm
              {
                OFFSET 16.3182 6.10351e-005 0
                CHANNELS 3 Zrotation Xrotation Yrotation
                JOINT LeftForeArm
                {
                  OFFSET 27.0901 0 0
                  CHANNELS 3 Zrotation Xrotation Yrotation
                  JOINT LeftHand
                  {
                    OFFSET 24.5451 1.52588e-005 0
                    CHANNELS 3 Zrotation Xrotation Yrotation
                    End Site
                    {
                      OFFSET 0 0 0
                    }
                  }
                }
              }
            }
            JOINT Neck
            {
              OFFSET 5.0226 -0.0266342 0
              CHANNELS 3 Zrotation Xrotation Yrotation
              JOINT Head
              {
                OFFSET 6.69364 2.86102e-005 0
                CHANNELS 3 Zrotation Xrotation Yrotation
                End Site
                {
                  OFFSET 0 0 0
                }
              }
            }
          }
        }
      }
    }
  }
}
MOTION
Frames:	10
Frame Time:	0.0416667
-317.317 88.0078 293.034 97.1338 32.994 90.8713 -178.074 -24.9903 86.6932 -11.4544 -7.93016 1.20871 86.0542 7.42152 -2.28438 23.8929 1.83343 -2.39347 -179.016 21.6662 101.966 -8.53137 -16.4533 -1.17516 67.8105 -4.0897 -2.20843 25.0788 -1.61892 4.47318 0.560621 8.27967 -90.8265 10.3173 0.738903 -1.7055 -1.35463 0.663143 -1.73636 -23.8849 1.21726 -1.40467 -3.87227 1.21728 -1.40467 89.2994 -34.977 -106.278 36.044 -2.90368 8.44921 3.11172 -26.8352 -11.7921 -21.6523 -0.178786 -7.67488 -84.9533 -48.2335 86.0774 -21.3967 3.29087 -40.911 15.5158 15.3817 -26.3165 2.44939 -0.258747 -8.36371 6.36853 0.509676 -11.9069 -4.35243 2.76113 2.83505 
-311.697 88.3741 288.011 98.4518 46.1422 89.2612 -169.096 -22.8081 98.7739 -20.7228 14.1158 0.0321475 81.0758 9.23896 0.826544 34.8027 2.39009 -5.3107 176.887 25.7033 98.7299 -21.6893 -9.98092 0.361037 61.0595 -0.478707 -4.54926 24.034 -1.743 4.81979 -0.869689 8.18209 -91.0988 10.4877 -2.23642 -1.98218 -1.18249 -2.32146 -1.88183 -23.7153 -1.53745 -2.56246 -3.70265 -1.53748 -2.56247 89.8556 -34.1797 -105.526 37.1192 -0.726173 9.69309 5.7895 -26.2184 -5.82324 -20.6418 -0.664647 -4.56806 -84.9862 -49.6444 86.2133 -22.5236 5.87891 -39.3355 14.9428 17.3765 -24.5373 2.04311 -0.257207 -8.68716 6.94809 0.808849 -8.71203 -5.172 2.4975 1.61457 
-305.143 88.7123 281.974 99.3095 48.3052 89.2255 -167.571 -17.9535 101.483 -35.3007 20.1253 2.83492 67.7757 4.08986 1.83904 35.1851 5.38598 -10.2533 175.684 25.1464 98.9682 -31.6059 -7.20478 1.19855 61.4618 -0.593758 -1.1199 20.111 -0.772542 2.74204 -0.973907 7.99472 -91.2665 10.8546 -2.52423 -2.28367 -0.815775 -2.62227 -2.17038 -23.3453 -1.72154 -2.93641 -3.3326 -1.72154 -2.9364 89.6956 -33.6438 -106.011 38.2638 1.3392 10.9617 6.37666 -24.2495 -3.82563 -19.0025 -0.184681 -7.59526 -85.132 -49.724 85.9977 -22.7724 11.3814 -34.6784 11.5603 20.9344 -19.1702 -1.43551 -0.133352 -9.00934 5.75769 0.578076 -6.81222 -6.02382 1.7969 1.73663 
-299.529 89.2847 276.735 102.277 48.6465 87.8526 -167.5 -7.59763 103.114 -55.5244 23.8788 5.61293 56.2765 -0.783308 0.750599 22.5212 5.49027 -7.65264 175.268 20.1302 100.135 -36.4651 -8.08535 1.70029 68.3392 -4.0233 -3.8164 19.9423 -0.659934 2.51439 -0.727837 8.19758 -91.2422 10.4532 -2.01945 -2.29 -1.21804 -2.11827 -2.19893 -23.7427 -1.23815 -2.79075 -3.73008 -1.23818 -2.79075 89.3434 -34.7231 -106.285 38.6616 -0.559206 8.73003 5.79968 -24.5446 -6.3773 -19.1075 -0.197155 -7.52636 -85.1931 -48.3821 85.7295 -24.4173 14.274 -31.6369 6.0768 23.4063 -9.69052 0.351125 -0.0933721 -5.50309 6.35959 -0.410902 -7.46379 -6.19761 0.967625 2.21739 
-295.107 90.0832 272.425 101.746 50.8821 87.6087 -171.05 8.01728 100.997 -70.0854 17.1158 6.62695 62.7816 2.19581 0.18897 13.8676 3.59623 -3.44779 174.692 16.0362 99.4741 -36.4365 -6.46219 1.91457 73.3019 -5.97533 -3.28573 21.4684 -0.700849 2.4978 -0.584327 8.20092 -91.1854 10.4506 -1.70736 -2.20468 -1.22095 -1.80273 -2.12744 -23.7447 -0.966115 -2.61565 -3.73204 -0.966089 -2.61564 89.2284 -34.2216 -106.677 37.6583 -3.47021 4.22566 3.25022 -27.2289 -11.7176 -21.047 -0.127125 -8.15922 -85.0634 -50.1821 86.1679 -26.3908 12.0326 -26.7467 3.43694 20.4831 -2.74613 1.69532 -0.159502 -6.31187 5.29242 -1.659 -6.58817 -4.99037 -0.44978 1.48913 
-290.779 91.407 267.89 100.743 48.647 85.7546 -172.442 18.9707 95.63 -68.7611 9.21654 3.89043 69.3988 5.26619 1.22724 14.3424 1.55231 -0.878908 175.271 10.8378 97.5282 -34.309 -8.36717 -0.042813 76.4043 -6.7594 -2.81 22.4027 -0.559072 2.10843 -0.00279605 8.20061 -90.7564 10.4667 -0.352488 -1.47076 -1.20507 -0.416853 -1.45383 -23.7334 0.105787 -1.50869 -3.72076 0.105813 -1.50869 88.8806 -34.1752 -107.341 34.7338 -5.61244 -0.946342 0.635117 -27.4865 -17.0477 -21.4386 0.0207927 -9.16897 -84.4192 -50.6252 87.1917 -27.6657 8.97405 -18.0937 4.80891 16.1415 -4.48594 -2.51864 -0.0904455 -9.32256 2.96085 -2.76651 -7.07518 -3.5254 -1.56513 0.566354 
-286.068 92.4523 262.749 99.7746 46.8168 85.1006 -174.268 25.5869 93.0263 -55.2647 2.24839 1.12945 70.3713 5.83496 -0.370847 16.3619 0.40812 0.399655 174.99 3.97068 95.1587 -29.7051 -8.25155 -1.17941 79.9673 -7.15755 1.91948 20.6761 -0.257086 1.57413 0.515562 8.22144 -90.4968 10.4346 0.799244 -1.05915 -1.23658 0.751844 -1.09331 -23.7718 1.08059 -0.770002 -3.75914 1.08061 -0.769989 88.9846 -32.4621 -107.784 32.197 -6.27931 -6.37882 -1.68224 -26.6895 -21.4258 -26.9077 -0.274672 -6.66162 -83.8879 -51.2457 88.0539 -25.7132 6.49559 -9.90741 5.59625 10.5702 -7.51014 -1.99994 -0.102749 -7.69078 1.49947 -3.4413 -5.58579 -3.02509 -2.5232 -2.34597 
-281.269 92.2703 257.081 99.1066 45.1541 84.6116 -176.867 26.6045 91.431 -32.6594 -1.51852 -0.763741 65.8192 4.46658 -2.69187 20.1848 -1.73961 3.25031 173.315 -2.79217 93.1585 -26.194 -12.3174 -1.16029 83.3443 -8.87184 1.71958 20.8219 0.317227 0.290623 0.925549 8.2505 -90.3284 10.3791 1.69357 -0.799921 -1.29108 1.65673 -0.8737 -23.8347 1.85564 -0.253806 -3.82207 1.85566 -0.253806 88.2676 -31.3559 -109.603 27.4222 -6.38991 -10.916 -3.82407 -26.6417 -24.8555 -28.6054 -0.522069 -5.43009 -83.3084 -52.9825 89.0874 -21.6226 3.54493 -2.18623 6.91496 9.6377 -11.3848 -1.48096 -0.107994 -6.70751 1.22774 -3.73278 -3.51425 -2.20528 -3.14838 -4.2069 
-275.851 91.1184 250.972 99.1523 43.5588 84.4905 -178.954 23.7482 91.5385 -8.45675 0.656585 -1.03612 60.4159 2.78832 -2.63419 19.9428 -0.692649 1.7188 171.712 -9.71193 90.713 -23.2125 -15.5193 -1.23982 86.3354 -10.5953 1.56213 21.9933 0.314307 0.152985 1.27829 8.32934 -90.2659 10.2243 2.4256 -0.735074 -1.44464 2.39089 -0.841176 -23.998 2.53432 0.0283561 -3.98532 2.5343 0.0283567 87.7836 -30.341 -110.971 22.1159 -5.67799 -16.2818 -4.65441 -28.6976 -25.213 -21.9556 0.137182 -10.0256 -82.9786 -52.8949 89.5618 -19.697 -0.921383 3.111 7.98104 8.16868 -11.0413 -0.891975 -0.105312 -5.51336 1.5634 -4.33325 -2.43256 -1.62963 -3.91531 -4.77744 
-269.646 89.1095 244.09 99.0114 40.7949 84.5287 -179.215 25.1115 91.8062 -8.34324 -3.71349 -2.20772 63.6073 3.39681 -4.18884 19.0242 -3.91453 6.29161 169.006 -16.2024 86.9794 -22.192 -20.4311 -1.34036 88.7917 -12.6878 0.61501 24.2805 -0.356234 1.46479 1.71766 8.34429 -90.2022 10.1993 3.33033 -0.683427 -1.46767 3.29701 -0.829491 -24.037 3.38157 0.350229 -4.02436 3.38159 0.350233 88.2647 -29.5721 -110.365 20.018 -3.39569 -20.025 -8.52216 -38.2479 -26.8087 -19.1109 -0.284755 -9.95638 -82.3904 -52.5324 90.3916 -18.2644 -2.50255 5.2154 7.61234 7.26882 -7.20137 -1.24517 -0.0891927 -4.17316 3.85393 -4.78755 -1.93467 -3.50674 -4.30745 -5.0053 
